<svg id="Capa_1" data-name="Capa 1" xmlns="http://www.w3.org/2000/svg" viewBox="0 0 96 96"><defs><style>.cls-1{fill:#7d60f5;}.cls-2{fill:#fff;}</style></defs><title>cliengo96</title><circle class="cls-1" cx="48" cy="48" r="48"/><path class="cls-2" d="M48.67,86.82a18.37,18.37,0,0,1-3.05-.25A15.82,15.82,0,0,1,34.21,78v0c-.08-.15-.15-.31-.23-.46-1.32-2.57-8.64-16.65-20.23-34.81a5.24,5.24,0,0,1,1.2-7.17,5.92,5.92,0,0,1,8.11,1.23l2.42,2.77c-1.58-4.07-3.18-8.31-4.15-11.28a5.3,5.3,0,0,1,2.85-6.6c2.25-1,5.37-.38,7.27,3.13,1,1.91,3.22,5.46,5.43,9-1.36-6.89-2.86-14.5-3.08-16-.63-4.16,1.59-6.91,4.11-7.46s5.54.83,6.78,5.08l3.52,12L49.12,19a6,6,0,0,1,6.39-5.5c2.6.19,5.31,2.36,5.13,6.65-.44,10.73-.89,18.94-1.21,24.94-.09,1.61-.17,3.08-.24,4.4a13.08,13.08,0,0,1,4.73,2.33,6.82,6.82,0,0,1,2.38,7.61,6.09,6.09,0,0,1-5.9,4.12c-3.13,0-5.5-2.66-5.9-6.53a26.61,26.61,0,0,1,0-3.44,23.67,23.67,0,0,0-6.25,1.59A18.5,18.5,0,0,0,37.82,65.69,12.28,12.28,0,0,0,38,75.46c.11.21.18.34.2.4a11.28,11.28,0,0,0,8.21,6.27c5.74,1,12.28-2.1,15.93-5.4,5.37-4.87,5.91-9.88,6.44-14.74a24.11,24.11,0,0,1,1.78-8,35.63,35.63,0,0,1,6.33-9.11c2.24-2.5,2.16-2.62,1.72-3.3s-1.6-1.1-3.25-1c-3.19.16-6.18,2.39-8,6a2.25,2.25,0,1,1-4-2c2.57-5,7-8.17,11.78-8.41,3.16-.16,5.94,1,7.26,3.07,2.38,3.69.08,6.26-2.16,8.74a31.68,31.68,0,0,0-5.6,8,20.78,20.78,0,0,0-1.38,6.55c-.55,5.15-1.25,11.57-7.89,17.58C61.4,83.64,55,86.82,48.67,86.82ZM18.27,38.89a1.11,1.11,0,0,0-.64.21.79.79,0,0,0-.1,1.15C24.16,50.64,29.42,59.72,33,66.12a19.47,19.47,0,0,1,.64-2A23.11,23.11,0,0,1,46.65,51a26.8,26.8,0,0,1,8.06-1.89c.06-1.23.14-2.64.23-4.24.32-6,.76-14.17,1.21-24.88,0-.71-.06-1.91-1-2a1.56,1.56,0,0,0-1.58,1.51L51.44,39.1a2.25,2.25,0,0,1-4.39.38L40.36,16.65c-.42-1.46-1.14-2-1.49-1.95s-.86.91-.63,2.4c.32,2.09,3.66,18.91,5.39,27.51a2.25,2.25,0,0,1-4.1,1.67c-.38-.6-9.46-14.61-12-19.38C27,26,26.4,25.56,26,25.75a.8.8,0,0,0-.36,1.07c2.4,7.3,8.9,23.12,9,23.28a2.25,2.25,0,0,1-3.77,2.34L19.66,39.69A1.92,1.92,0,0,0,18.27,38.89ZM59,54.13a23.29,23.29,0,0,0,0,2.44c.12,1.2.68,2.48,1.47,2.49h0A1.56,1.56,0,0,0,62.05,58a2.29,2.29,0,0,0-.88-2.56A8.57,8.57,0,0,0,59,54.13Z"/></svg>