<!-- Generated by IcoMoon.io -->
<svg version="1.1" xmlns="http://www.w3.org/2000/svg" width="518" height="448" viewBox="0 0 518 448" fill="#7D60F5">
<title></title>
<g id="icomoon-ignore">
</g>
<path d="M174.813 445.704c-0.039 0-0.084 0-0.129 0-53.732 0-98.181-39.745-105.551-91.44l-0.066-0.568c-0.014 0-0.030 0-0.046 0-37.485 0-67.872-30.387-67.872-67.872 0-36.693 29.118-66.586 65.508-67.832l0.114-0.003h2.296c7.437-52.263 51.886-92.008 105.617-92.008 0.065 0 0.13 0 0.195 0h71.297v-32.2c-19.998-6.106-34.293-24.395-34.293-46.023 0-26.526 21.504-48.029 48.029-48.029s48.029 21.504 48.029 48.029c0 4.93-0.743 9.686-2.122 14.164l0.090-0.34c-5.152 16.561-17.935 29.344-34.129 34.397l-0.367 0.099v32.293h71.307c0.055 0 0.12 0 0.185 0 53.732 0 98.181 39.745 105.551 91.44l0.067 0.568h2.296c36.794 0.89 66.28 30.928 66.28 67.853s-29.487 66.963-66.198 67.852l-0.083 0.002h-2.296c-7.437 52.263-51.886 92.008-105.617 92.008-0.065 0-0.13 0-0.195 0h-167.99zM347.331 422.707c43.686-2.663 78.119-38.698 78.213-82.796v-108.126c0-0.122 0.001-0.267 0.001-0.411 0-45.546-36.923-82.469-82.469-82.469-0.125 0-0.25 0-0.375 0.001h-167.981c-0.1-0-0.218-0.001-0.337-0.001-45.546 0-82.469 36.923-82.469 82.469 0 0.119 0 0.237 0.001 0.355v-0.018 108.099c0.095 44.107 34.528 80.142 77.98 82.794l0.234 0.011h177.109zM448.541 330.699v0c0.26 0.006 0.567 0.009 0.875 0.009 23.712 0 42.933-19.222 42.933-42.933 0-1.081-0.040-2.152-0.118-3.212l0.008 0.142c-0.827-23.794-19.905-42.872-43.621-43.697l-0.077-0.002zM22.941 284.704c-0.015 0.424-0.024 0.923-0.024 1.424 0 23.361 18.938 42.299 42.299 42.299 0.501 0 1-0.009 1.496-0.026l-0.072 0.002v-89.712c-23.728 2.727-42.188 21.996-43.636 45.857l-0.007 0.137zM234.621 47.768c0.021 12.69 10.292 22.974 22.974 23.016h0.004c12.338-0.865 22.132-10.66 22.993-22.919l0.004-0.078c-0.021-12.696-10.303-22.984-22.994-23.016h-0.003c-0.409-0.028-0.887-0.043-1.369-0.043-11.969 0-21.672 9.703-21.672 21.672 0 0.482 0.016 0.959 0.047 1.433l-0.004-0.064zM282.931 250.189c0-26.68 21.629-48.309 48.309-48.309s48.309 21.629 48.309 48.309c0 26.68-21.629 48.309-48.309 48.309v0 0c-26.638-0.116-48.202-21.673-48.328-48.297v-0.012zM305.928 250.189c0.032 12.688 10.309 22.966 22.994 22.997h0.003c12.701 0 22.997-10.296 22.997-22.997s-10.296-22.997-22.997-22.997v0c-0.409-0.028-0.887-0.043-1.369-0.043-11.969 0-21.672 9.703-21.672 21.672 0 0.482 0.016 0.959 0.047 1.433l-0.004-0.064zM140.317 250.189c0-26.68 21.629-48.309 48.309-48.309s48.309 21.629 48.309 48.309c0 26.68-21.629 48.309-48.309 48.309-0.033 0-0.066 0-0.098 0h0.005c-26.629-0.126-48.183-21.68-48.309-48.297v-0.012zM163.315 250.189c0.032 12.688 10.309 22.966 22.994 22.997h0.003c12.337-0.865 22.132-10.66 22.993-22.919l0.004-0.078c-0.032-12.688-10.309-22.966-22.994-22.997h-0.003c-0.409-0.028-0.887-0.043-1.369-0.043-11.969 0-21.672 9.703-21.672 21.672 0 0.482 0.016 0.959 0.047 1.433l-0.004-0.064z"></path>
<path d="M253.083 401.931c-33.498-0.165-61.518-23.42-68.969-54.656l-0.098-0.485 22.997-4.592c4.833 21.216 23.537 36.811 45.885 36.811 0.065 0 0.13 0 0.195-0h-0.010c22.103-0.724 40.453-15.969 45.862-36.469l0.077-0.342 22.997 4.592c-8.172 31.293-35.753 54.178-68.83 55.139l-0.106 0.003z"></path>
</svg>
