<?xml version="1.0" encoding="utf-8"?>
<!-- Generator: Adobe Illustrator 17.0.0, SVG Export Plug-In . SVG Version: 6.00 Build 0)  -->
<!DOCTYPE svg PUBLIC "-//W3C//DTD SVG 1.1//EN" "http://www.w3.org/Graphics/SVG/1.1/DTD/svg11.dtd">
<svg xmlns:xlink="http://www.w3.org/1999/xlink" version="1.1" id="Layer_1" xmlns="http://www.w3.org/2000/svg" x="0px" y="0px"
	 width="135px" height="24.022px" viewBox="0 0 135 24.022" enable-background="new 0 0 135 24.022" xml:space="preserve">
<g>
	<g>
		<g>
			<path fill="#515151" d="M11.736,0.342c3.283,0,5.657,1.04,7.867,3.023c0.292,0.26,0.292,0.65,0.032,0.91l-1.983,2.048
				c-0.228,0.26-0.553,0.26-0.813,0c-1.365-1.203-3.186-1.918-5.006-1.918c-4.161,0-7.25,3.479-7.25,7.575
				c0,4.064,3.121,7.51,7.282,7.51c1.951,0,3.609-0.748,4.974-1.853c0.26-0.228,0.618-0.195,0.813,0l2.016,2.081
				c0.26,0.228,0.195,0.65-0.033,0.878c-2.211,2.146-5.006,3.153-7.9,3.153C5.234,23.749,0,18.58,0,12.078S5.234,0.342,11.736,0.342
				z"/>
			<path fill="#515151" d="M23.048,1.284c0-0.325,0.26-0.618,0.618-0.618h2.991c0.325,0,0.618,0.293,0.618,0.618v18.238h8.29
				c0.358,0,0.618,0.293,0.618,0.618v2.666c0,0.325-0.26,0.618-0.618,0.618H23.665c-0.358,0-0.618-0.293-0.618-0.618V1.284z"/>
			<path fill="#515151" d="M38.814,1.284c0-0.325,0.292-0.618,0.618-0.618h3.023c0.325,0,0.618,0.293,0.618,0.618v21.522
				c0,0.325-0.293,0.618-0.618,0.618h-3.023c-0.325,0-0.618-0.293-0.618-0.618V1.284z"/>
			<path fill="#515151" d="M47.948,1.284c0-0.325,0.26-0.618,0.618-0.618h13.232c0.358,0,0.618,0.293,0.618,0.618V3.95
				c0,0.325-0.26,0.618-0.618,0.618h-9.623V9.9h8.03c0.325,0,0.618,0.293,0.618,0.618v2.698c0,0.358-0.292,0.618-0.618,0.618h-8.03
				v5.689h9.623c0.358,0,0.618,0.293,0.618,0.618v2.666c0,0.325-0.26,0.618-0.618,0.618H48.566c-0.358,0-0.618-0.293-0.618-0.618
				V1.284z"/>
			<path fill="#515151" d="M66.022,0.927c0-0.325,0.292-0.585,0.618-0.585h0.488c0.228,0,0.39,0.065,0.553,0.228l13.264,14.142
				h0.065V1.284c0-0.325,0.26-0.618,0.618-0.618h2.991c0.325,0,0.618,0.293,0.618,0.618v21.879c0,0.325-0.292,0.585-0.618,0.585
				h-0.455c-0.228,0-0.39-0.065-0.553-0.228L70.281,8.827h-0.065v13.979c0,0.325-0.26,0.618-0.618,0.618h-2.958
				c-0.325,0-0.618-0.293-0.618-0.618V0.927z"/>
			<path fill="#515151" d="M100.448,0.342c2.926,0,5.722,1.138,7.933,3.023c0.26,0.26,0.292,0.65,0.032,0.91l-2.016,2.113
				c-0.26,0.26-0.553,0.26-0.845,0c-1.398-1.235-3.121-1.886-4.909-1.886c-4.064,0-7.282,3.479-7.282,7.542
				c0,4.031,3.219,7.445,7.315,7.445c1.821,0,3.219-0.553,3.869-0.813v-2.763h-2.601c-0.358,0-0.618-0.26-0.618-0.585v-2.568
				c0-0.358,0.26-0.618,0.618-0.618h6.242c0.325,0,0.585,0.293,0.585,0.618v8.323c0,0.26-0.13,0.423-0.26,0.52
				c0,0-3.349,2.113-8.063,2.113c-6.47,0-11.671-5.137-11.671-11.639S93.978,0.342,100.448,0.342z"/>
		</g>
	</g>
	<g>
		<path fill="#FFCC33" d="M122.99,20.997L122.99,20.997v3.024c6.633-0.001,12.01-5.378,12.01-12.011h-3.024
			C131.976,16.974,127.953,20.997,122.99,20.997z"/>
		<path fill="#FFCC33" d="M122.99,16.175L122.99,16.175v2.32c3.581-0.001,6.483-2.903,6.483-6.484h-2.32
			C127.153,14.31,125.29,16.174,122.99,16.175z"/>
		<path fill="#FFCC33" d="M124.629,12.011h-1.639v1.64C123.896,13.65,124.629,12.916,124.629,12.011z"/>
		<path fill="#02CF69" d="M122.989,20.997c-4.963-0.001-8.985-4.024-8.985-8.987h-3.024c0,6.634,5.377,12.011,12.011,12.011v0
			c0,0-0.001,0-0.001,0V20.997z"/>
		<rect x="122.989" y="20.998" fill="#02CF69" width="0.001" height="3.024"/>
		<line fill="#FFFFFF" x1="116.506" y1="12.011" x2="116.506" y2="12.011"/>
		<line fill="#FFFFFF" x1="114.004" y1="12.011" x2="114.004" y2="12.011"/>
		<rect x="122.989" y="20.997" fill="#FFFFFF" width="0.001" height="0"/>
		<line fill="#FFFFFF" x1="122.989" y1="18.495" x2="122.989" y2="18.495"/>
		<line fill="#FFFFFF" x1="122.989" y1="20.997" x2="122.989" y2="20.997"/>
		<line fill="#FFFFFF" x1="122.99" y1="18.495" x2="122.989" y2="18.495"/>
		<line fill="#FFFFFF" x1="122.989" y1="20.997" x2="122.99" y2="20.997"/>
		<polyline fill="#02CF69" points="118.826,12.011 116.506,12.011 116.506,12.011 116.506,12.011 118.826,12.011 		"/>
		<polyline fill="#02CF69" points="121.35,12.011 122.989,12.011 122.989,12.011 122.989,12.011 121.35,12.011 		"/>
		<path fill="#02CF69" d="M122.989,16.175c-2.299-0.001-4.163-1.865-4.163-4.164h-2.32c0,3.581,2.902,6.483,6.483,6.484v0V16.175z"
			/>
		<rect x="122.989" y="18.495" fill="#02CF69" width="0" height="0"/>
		<rect x="122.989" y="18.495" fill="#02CF69" width="0.001" height="0"/>
		<polygon fill="#02CF69" points="122.989,16.175 122.989,16.175 122.989,18.495 122.989,18.495 122.989,16.175 		"/>
		<polygon fill="#02CF69" points="122.989,16.175 122.989,16.175 122.989,18.495 122.99,18.495 122.99,16.175 		"/>
		<polygon fill="#02CF69" points="122.989,16.175 122.989,16.175 122.989,16.175 		"/>
		<line fill="#FFFFFF" x1="122.989" y1="16.175" x2="122.989" y2="16.175"/>
		<polyline fill="#FFFFFF" points="122.989,13.651 122.989,13.651 122.989,13.651 		"/>
		<polygon fill="#FFFFFF" points="122.99,16.175 122.99,16.175 122.989,16.175 		"/>
		<polyline fill="#FFFFFF" points="122.99,13.651 122.99,13.651 122.989,13.651 		"/>
		<polyline fill="#FFFFFF" points="122.989,16.175 122.989,16.175 122.99,16.175 		"/>
		<polygon fill="#FFFFFF" points="122.989,13.651 122.989,13.651 122.99,13.651 		"/>
		<path fill="#02CF69" d="M122.989,13.651v-1.64l0,0h0l0,0h-1.639C121.35,12.916,122.084,13.65,122.989,13.651z"/>
		<rect x="122.989" y="12.011" fill="#02CF69" width="0" height="1.64"/>
		<polygon fill="#02CF69" points="122.99,13.651 122.99,13.651 122.99,13.651 		"/>
		<polygon fill="#02CF69" points="122.989,12.011 122.989,13.651 122.99,13.651 122.99,13.651 122.99,12.011 122.989,12.011 		"/>
		<path fill="#7D60F5" d="M122.989,3.024L122.989,3.024V0c-6.633,0.001-12.01,5.378-12.01,12.011h3.024
			C114.004,7.048,118.026,3.025,122.989,3.024z"/>
		<path fill="#7D60F5" d="M122.989,7.847L122.989,7.847v-2.32c-3.581,0.001-6.483,2.903-6.483,6.484h2.32
			C118.826,9.711,120.69,7.847,122.989,7.847z"/>
		<path fill="#7D60F5" d="M121.35,12.011h1.639v-1.64C122.084,10.371,121.35,11.105,121.35,12.011z"/>
		<path fill="#EB2963" d="M122.99,3.024c4.963,0.001,8.985,4.024,8.985,8.987H135C135,5.377,129.623,0,122.989,0v0
			c0,0,0.001,0,0.001,0L122.99,3.024z"/>
		<rect x="122.989" y="0" fill="#EB2963" width="0.001" height="3.024"/>
		<line fill="#FFFFFF" x1="129.473" y1="12.011" x2="129.473" y2="12.011"/>
		<line fill="#FFFFFF" x1="131.976" y1="12.011" x2="131.976" y2="12.011"/>
		<rect x="122.989" y="3.024" fill="#FFFFFF" width="0.001" height="0"/>
		<line fill="#FFFFFF" x1="122.99" y1="5.527" x2="122.99" y2="5.527"/>
		<line fill="#FFFFFF" x1="122.99" y1="3.024" x2="122.99" y2="3.024"/>
		<line fill="#FFFFFF" x1="122.989" y1="5.527" x2="122.99" y2="5.527"/>
		<line fill="#FFFFFF" x1="122.99" y1="3.024" x2="122.989" y2="3.024"/>
		<polyline fill="#EB2963" points="127.153,12.011 129.473,12.011 129.473,12.011 127.153,12.011 		"/>
		<polyline fill="#EB2963" points="124.629,12.011 122.99,12.011 122.99,12.011 122.99,12.011 124.629,12.011 		"/>
		<rect x="122.989" y="12.011" fill="#EB2963" width="0.001" height="0"/>
		<rect x="122.99" y="12.01" fill="#EB2963" width="0" height="0.001"/>
		<path fill="#EB2963" d="M122.99,7.847c2.299,0.001,4.163,1.865,4.163,4.164h2.32c0-3.581-2.902-6.483-6.483-6.484v0V7.847z"/>
		<rect x="122.99" y="5.527" fill="#EB2963" width="0" height="0"/>
		<rect x="122.989" y="5.527" fill="#EB2963" width="0.001" height="0"/>
		<polygon fill="#EB2963" points="122.99,7.847 122.99,5.527 122.99,5.527 122.99,7.847 122.99,7.847 		"/>
		<polygon fill="#EB2963" points="122.99,7.847 122.99,7.847 122.99,5.527 122.989,5.527 122.989,7.847 		"/>
		<polygon fill="#EB2963" points="122.99,7.847 122.99,7.847 122.99,7.847 		"/>
		<line fill="#FFFFFF" x1="122.99" y1="7.847" x2="122.99" y2="7.847"/>
		<polyline fill="#FFFFFF" points="122.99,10.371 122.99,10.371 122.99,10.371 		"/>
		<polygon fill="#FFFFFF" points="122.989,7.847 122.989,7.847 122.99,7.847 		"/>
		<polyline fill="#FFFFFF" points="122.989,10.371 122.99,10.371 122.99,10.371 		"/>
		<polyline fill="#FFFFFF" points="122.99,7.847 122.99,7.847 122.989,7.847 		"/>
		<polygon fill="#FFFFFF" points="122.99,10.371 122.99,10.371 122.99,10.371 		"/>
		<path fill="#EB2963" d="M122.99,10.371v1.64l0,0h0v0h1.639C124.629,11.105,123.896,10.371,122.99,10.371z"/>
		<rect x="122.989" y="12.011" fill="#EB2963" width="0.001" height="0"/>
		<rect x="122.99" y="10.371" fill="#EB2963" width="0" height="1.64"/>
		<polygon fill="#EB2963" points="122.989,10.371 122.99,10.371 122.989,10.371 		"/>
		<polygon fill="#EB2963" points="122.99,12.011 122.99,10.371 122.99,10.371 122.989,10.371 122.989,12.011 122.99,12.011 		"/>
	</g>
</g>
</svg>
